<svg xmlns="http://www.w3.org/2000/svg" width="980" height="600" viewBox="0 0 980 600">
  <defs>
    <style>
      .window { fill: #ffffff; stroke: #9ca3af; stroke-width: 2; rx: 10; }
      .bar { fill: #e5edf7; }
      .label { font: 15px "Microsoft YaHei UI", "Segoe UI", sans-serif; fill: #374151; }
      .title { font: 700 18px "Microsoft YaHei UI", "Segoe UI", sans-serif; fill: #111827; }
      .input { fill: #f9fafb; stroke: #cbd5e1; stroke-width: 2; rx: 5; }
      .button { fill: #e0f2fe; stroke: #38bdf8; stroke-width: 2; rx: 7; }
      .button2 { fill: #f3f4f6; stroke: #cbd5e1; stroke-width: 2; rx: 7; }
      .select { fill: #ffffff; stroke: #94a3b8; stroke-width: 2; rx: 5; }
      .log { fill: #111827; stroke: #374151; stroke-width: 2; rx: 6; }
      .logtext { font: 14px Consolas, "Microsoft YaHei UI", monospace; fill: #d1fae5; }
      .note { font: 13px "Microsoft YaHei UI", "Segoe UI", sans-serif; fill: #6b7280; }
      .callout { fill: #fff7ed; stroke: #fb923c; stroke-width: 2; rx: 8; }
      .line { stroke: #fb923c; stroke-width: 2; fill: none; marker-end: url(#arrow); }
    </style>
    <marker id="arrow" markerWidth="12" markerHeight="12" refX="10" refY="6" orient="auto">
      <path d="M2,2 L10,6 L2,10 Z" fill="#fb923c"/>
    </marker>
  </defs>
  <rect x="25" y="25" width="930" height="550" class="window"/>
  <rect x="25" y="25" width="930" height="42" class="bar"/>
  <text x="48" y="52" class="title">C 盘文件夹迁移工具</text>

  <text x="55" y="105" class="label">源目录（C 盘）：</text>
  <rect x="180" y="84" width="600" height="34" class="input"/>
  <text x="195" y="106" class="note">C:\Users\Administrator\AppData\Local\Example</text>
  <rect x="795" y="84" width="105" height="34" class="button2"/>
  <text x="825" y="106" class="label">选择...</text>

  <text x="55" y="155" class="label">目标根目录：</text>
  <rect x="180" y="134" width="600" height="34" class="input"/>
  <text x="195" y="156" class="note">E:\AppDataMigrated</text>
  <rect x="795" y="134" width="105" height="34" class="button2"/>
  <text x="825" y="156" class="label">选择...</text>

  <rect x="180" y="190" width="120" height="38" class="button2"/>
  <text x="211" y="214" class="label">预估大小</text>
  <rect x="315" y="190" width="120" height="38" class="button2"/>
  <text x="346" y="214" class="label">打开目标</text>
  <rect x="465" y="198" width="18" height="18" fill="#fff" stroke="#9ca3af"/>
  <text x="492" y="214" class="label">删除临时备份</text>
  <rect x="665" y="190" width="125" height="38" class="button2"/>
  <text x="694" y="214" class="label">还原迁移</text>
  <rect x="805" y="190" width="135" height="38" class="button"/>
  <text x="839" y="214" class="title">迁移所选</text>

  <text x="55" y="264" class="label">Language:</text>
  <rect x="135" y="243" width="160" height="32" class="select"/>
  <text x="148" y="264" class="label">中文</text>
  <text x="55" y="306" class="note">建议：先关闭相关程序。不要迁移 Windows、Program Files、DriverStore、整个 AppData。</text>
  <text x="55" y="326" class="note">还原迁移会读取目标根目录里的 迁移来源清单.csv 或 migration-sources.csv。</text>

  <rect x="55" y="350" width="845" height="165" class="log"/>
  <text x="78" y="380" class="logtext">[00:10:05] 工具已启动。</text>
  <text x="78" y="408" class="logtext">[00:10:16] 大小：2.71 GB</text>
  <text x="78" y="436" class="logtext">[00:11:42] 复制完成，开始校验大小...</text>
  <text x="78" y="464" class="logtext">[00:11:55] 迁移完成。原路径现在指向 E:\AppDataMigrated\Example</text>

  <rect x="575" y="250" width="330" height="58" class="callout"/>
  <text x="595" y="275" class="label">还原依赖目标根目录里的记录清单</text>
  <text x="595" y="296" class="note">目标根目录填错时，列表会找不到可还原记录。</text>
  <path class="line" d="M704 250 C700 235 705 228 720 222"/>
</svg>
